<svg width="649" height="491" viewBox="0 0 649 491" fill="none" xmlns="http://www.w3.org/2000/svg">
<ellipse cx="105.776" cy="144.785" rx="42.5461" ry="141.067" transform="rotate(29.0554 105.776 144.785)" fill="#0A1B20"/>
<ellipse cx="118.867" cy="148.393" rx="29.3553" ry="97.3314" transform="rotate(29.0554 118.867 148.393)" fill="white"/>
<ellipse cx="122.635" cy="162.805" rx="17.6816" ry="58.6257" transform="rotate(29.0554 122.635 162.805)" fill="#1E1B1B"/>
<ellipse cx="122.635" cy="162.805" rx="17.6816" ry="58.6257" transform="rotate(29.0554 122.635 162.805)" fill="#1E1B1B"/>
<path fill-rule="evenodd" clip-rule="evenodd" d="M647.876 285.107C645.9 266.623 641.22 248.492 633.955 231.303C624.057 207.885 609.563 186.69 591.329 168.973C573.095 151.255 551.492 137.376 527.8 128.155C504.107 118.933 478.805 114.559 453.392 115.289C427.978 116.019 402.969 121.84 379.845 132.406C356.721 142.972 335.951 158.07 318.765 176.805C301.578 195.541 288.325 217.533 279.788 241.481C274.75 255.614 271.415 270.259 269.828 285.107C269.116 287.416 268.751 289.762 268.751 292.137C268.751 292.895 268.789 293.65 268.862 294.402C268.763 297.305 268.731 300.207 268.764 303.106C268.731 306.004 268.763 308.905 268.863 311.807C268.789 312.559 268.751 313.315 268.751 314.073C268.751 316.448 269.117 318.793 269.828 321.103C271.415 335.951 274.75 350.596 279.788 364.729C288.325 388.677 301.578 410.669 318.765 429.404C335.951 448.139 356.721 463.237 379.845 473.804C402.969 484.37 427.978 490.19 453.392 490.921C478.805 491.651 504.107 487.276 527.8 478.055C551.492 468.834 573.095 454.954 591.329 437.237C609.563 419.519 624.057 398.325 633.955 374.906C641.22 357.717 645.9 339.586 647.876 321.103C648.588 318.793 648.953 316.448 648.953 314.073C648.953 312.931 648.868 311.795 648.701 310.668C648.793 308.884 648.86 307.099 648.901 305.311H648.953C648.953 304.576 648.948 303.84 648.94 303.105C648.948 302.37 648.953 301.634 648.953 300.898H648.901C648.86 299.111 648.793 297.325 648.701 295.542C648.868 294.414 648.953 293.279 648.953 292.137C648.953 289.762 648.588 287.417 647.876 285.107Z" fill="#173647"/>
<path d="M608.761 58.2407L619.617 92.8209L648.953 105.617L619.617 118.413L608.761 152.993L597.906 118.413L568.57 105.617L597.906 92.8209L608.761 58.2407Z" fill="#FF4242"/>
<mask id="mask0_2345_83" style="mask-type:alpha" maskUnits="userSpaceOnUse" x="268" y="115" width="381" height="376">
<path fill-rule="evenodd" clip-rule="evenodd" d="M647.876 285.107C645.9 266.623 641.22 248.492 633.955 231.303C624.057 207.885 609.563 186.69 591.329 168.973C573.095 151.255 551.492 137.375 527.8 128.154C504.107 118.933 478.805 114.559 453.392 115.289C427.978 116.019 402.969 121.84 379.845 132.406C356.721 142.972 335.951 158.07 318.765 176.805C301.578 195.54 288.325 217.533 279.788 241.481C274.75 255.614 271.415 270.259 269.828 285.107C269.116 287.416 268.751 289.762 268.751 292.137C268.751 292.895 268.789 293.65 268.863 294.402C268.763 297.305 268.731 300.206 268.764 303.105C268.731 306.003 268.763 308.905 268.863 311.807C268.789 312.559 268.751 313.315 268.751 314.073C268.751 316.448 269.116 318.793 269.828 321.103C271.415 335.95 274.75 350.595 279.788 364.729C288.325 388.677 301.578 410.669 318.765 429.404C335.951 448.139 356.721 463.237 379.845 473.803C402.969 484.37 427.978 490.19 453.392 490.921C478.805 491.651 504.107 487.276 527.8 478.055C551.492 468.834 573.095 454.954 591.329 437.237C609.563 419.519 624.057 398.324 633.955 374.906C641.22 357.717 645.9 339.586 647.876 321.103C648.588 318.793 648.953 316.448 648.953 314.073C648.953 312.931 648.868 311.795 648.701 310.668C648.793 308.884 648.86 307.098 648.901 305.311H648.953C648.953 304.575 648.948 303.84 648.94 303.105C648.948 302.37 648.953 301.634 648.953 300.898H648.901C648.86 299.111 648.793 297.325 648.701 295.542C648.868 294.414 648.953 293.279 648.953 292.137C648.953 289.762 648.588 287.416 647.876 285.107Z" fill="#24B0FF"/>
</mask>
<g mask="url(#mask0_2345_83)">
<path d="M370.852 222.64L400.991 292.479H340.713L370.852 222.64Z" fill="#FFA800"/>
<path d="M486.539 308.08L501.207 342.068H471.872L486.539 308.08Z" fill="#FFA800"/>
<path d="M454.515 338.303L310.742 85.1819L598.288 85.1819L454.515 338.303Z" fill="#FFA800"/>
</g>
</svg>
