<svg width="766" height="511" viewBox="0 0 766 511" fill="none" xmlns="http://www.w3.org/2000/svg">
<path d="M25.0314 486.834C21.0734 495.042 24.519 504.904 32.7273 508.862C40.9356 512.82 50.7983 509.375 54.7562 501.166L25.0314 486.834ZM181.926 226.306C178.92 217.703 169.51 213.165 160.907 216.171L20.716 265.147C12.1132 268.153 7.57565 277.563 10.5811 286.166C13.5865 294.769 22.9969 299.306 31.5997 296.301L156.214 252.766L199.749 377.381C202.754 385.983 212.165 390.521 220.767 387.516C229.37 384.51 233.908 375.1 230.902 366.497L181.926 226.306ZM54.7562 501.166L181.211 238.914L151.487 224.581L25.0314 486.834L54.7562 501.166Z" fill="#2DD9FF"/>
<path d="M16.0795 460.925C12.1215 469.134 15.5671 478.996 23.7754 482.954C31.9837 486.912 41.8464 483.467 45.8043 475.258L16.0795 460.925ZM172.974 200.398C169.968 191.795 160.558 187.257 151.955 190.263L11.7641 239.239C3.16132 242.245 -1.37626 251.655 1.62919 260.258C4.63464 268.861 14.045 273.398 22.6478 270.393L147.262 226.858L190.797 351.472C193.802 360.075 203.213 364.613 211.815 361.607C220.418 358.602 224.956 349.192 221.95 340.589L172.974 200.398ZM45.8043 475.258L172.26 213.006L142.535 198.673L16.0795 460.925L45.8043 475.258Z" fill="#FE9053"/>
<path d="M291.435 383.827C287.477 392.035 290.922 401.898 299.131 405.856C307.339 409.814 317.202 406.368 321.16 398.16L291.435 383.827ZM448.329 123.299C445.324 114.697 435.913 110.159 427.31 113.164L287.119 162.141C278.517 165.147 273.979 174.557 276.984 183.16C279.99 191.763 289.4 196.3 298.003 193.295L422.617 149.76L466.152 274.374C469.158 282.977 478.568 287.515 487.171 284.509C495.774 281.504 500.311 272.093 497.306 263.491L448.329 123.299ZM321.16 398.16L447.615 135.908L417.89 121.575L291.435 383.827L321.16 398.16Z" fill="#2DD9FF"/>
<path d="M282.483 357.919C278.525 366.127 281.971 375.99 290.179 379.948C298.387 383.906 308.25 380.46 312.208 372.252L282.483 357.919ZM439.378 97.3912C436.372 88.7884 426.962 84.2509 418.359 87.2563L278.168 136.233C269.565 139.238 265.028 148.649 268.033 157.251C271.038 165.854 280.449 170.392 289.052 167.386L413.666 123.852L457.201 248.466C460.206 257.069 469.616 261.606 478.219 258.601C486.822 255.596 491.36 246.185 488.354 237.582L439.378 97.3912ZM312.208 372.252L438.663 110L408.938 95.6666L282.483 357.919L312.208 372.252Z" fill="#FE9053"/>
<path d="M558.805 298.486C554.847 306.694 558.292 316.557 566.5 320.515C574.709 324.473 584.571 321.027 588.529 312.819L558.805 298.486ZM715.699 37.9581C712.694 29.3553 703.283 24.8178 694.68 27.8232L554.489 76.7997C545.886 79.8052 541.349 89.2156 544.354 97.8184C547.36 106.421 556.77 110.959 565.373 107.953L689.987 64.4186L733.522 189.033C736.527 197.636 745.938 202.173 754.541 199.168C763.143 196.162 767.681 186.752 764.676 178.149L715.699 37.9581ZM588.529 312.819L714.985 50.5665L685.26 36.2335L558.805 298.486L588.529 312.819Z" fill="#2DD9FF"/>
<path d="M549.853 272.578C545.895 280.786 549.341 290.649 557.549 294.607C565.757 298.565 575.62 295.119 579.578 286.911L549.853 272.578ZM706.747 12.0499C703.742 3.44713 694.332 -1.09044 685.729 1.91499L545.538 50.8915C536.935 53.897 532.397 63.3073 535.403 71.9102C538.408 80.513 547.818 85.0506 556.421 82.0451L681.036 38.5104L724.57 163.125C727.576 171.728 736.986 176.265 745.589 173.26C754.192 170.254 758.729 160.844 755.724 152.241L706.747 12.0499ZM579.578 286.911L706.033 24.6583L676.308 10.3253L549.853 272.578L579.578 286.911Z" fill="#FE9053"/>
</svg>
