<svg width="690" height="430" viewBox="0 0 690 430" fill="none" xmlns="http://www.w3.org/2000/svg">
<path fill-rule="evenodd" clip-rule="evenodd" d="M688.505 170.108C686.529 151.624 681.849 133.493 674.584 116.304C664.686 92.886 650.192 71.6911 631.958 53.9737C613.724 36.2563 592.122 22.3764 568.429 13.1554C544.736 3.93439 519.434 -0.440417 494.021 0.289872C468.607 1.02016 443.598 6.84071 420.474 17.4071C397.35 27.9734 376.58 43.0709 359.394 61.8062C342.207 80.5414 328.954 102.534 320.417 126.482C315.379 140.615 312.044 155.26 310.457 170.108C309.746 172.417 309.381 174.763 309.381 177.138C309.381 177.896 309.418 178.651 309.492 179.403C309.392 182.305 309.36 185.207 309.393 188.106C309.36 191.004 309.392 193.906 309.492 196.808C309.418 197.56 309.381 198.315 309.381 199.074C309.381 201.449 309.746 203.794 310.457 206.104C312.044 220.951 315.379 235.596 320.417 249.73C328.954 273.678 342.207 295.67 359.394 314.405C376.58 333.14 397.35 348.238 420.474 358.804C443.598 369.371 468.607 375.191 494.021 375.922C519.434 376.652 544.736 372.277 568.429 363.056C592.122 353.835 613.724 339.955 631.958 322.238C650.192 304.52 664.686 283.325 674.584 259.907C681.849 242.718 686.529 224.587 688.505 206.104C689.217 203.794 689.582 201.449 689.582 199.074C689.582 197.932 689.497 196.796 689.331 195.669C689.422 193.885 689.489 192.099 689.531 190.312H689.582C689.582 189.576 689.578 188.841 689.569 188.106C689.578 187.37 689.582 186.635 689.582 185.899H689.531C689.489 184.112 689.422 182.326 689.331 180.543C689.497 179.415 689.582 178.28 689.582 177.138C689.582 174.763 689.217 172.417 688.505 170.108ZM379.124 224.108C377.149 205.625 372.469 187.494 365.204 170.304C355.306 146.886 340.811 125.691 322.577 107.974C304.344 90.2566 282.741 76.3767 259.048 67.1557C235.355 57.9347 210.054 53.5599 184.64 54.2902C159.227 55.0205 134.218 60.841 111.094 71.4074C87.9693 81.9737 67.1995 97.0712 50.0132 115.806C32.8269 134.542 19.5733 156.534 11.0366 180.482C5.99854 194.615 2.6638 209.26 1.07676 224.108C0.365034 226.418 1.1661e-05 228.763 1.1661e-05 231.138C1.1661e-05 231.896 0.0372187 232.651 0.111036 233.404C0.0117964 236.306 -0.0208407 239.207 0.0128024 242.106C-0.0208407 245.005 0.0117964 247.906 0.111036 250.809C0.0372187 251.561 1.1661e-05 252.316 1.1661e-05 253.074C1.1661e-05 255.449 0.365035 257.794 1.07676 260.104C2.6638 274.952 5.99854 289.597 11.0366 303.73C19.5733 327.678 32.8269 349.67 50.0132 368.406C67.1995 387.141 87.9693 402.238 111.094 412.805C134.218 423.371 159.227 429.192 184.64 429.922C210.054 430.652 235.355 426.277 259.048 417.056C282.741 407.835 304.344 393.955 322.577 376.238C340.811 358.521 355.306 337.326 365.204 313.908C372.469 296.718 377.149 278.587 379.124 260.104C379.836 257.794 380.201 255.449 380.201 253.074C380.201 251.932 380.117 250.797 379.95 249.669C380.042 247.885 380.108 246.1 380.15 244.312H380.201C380.201 243.577 380.197 242.841 380.188 242.106C380.197 241.371 380.201 240.635 380.201 239.9H380.15C380.108 238.112 380.042 236.327 379.95 234.543C380.117 233.415 380.201 232.28 380.201 231.138C380.201 228.763 379.836 226.418 379.124 224.108Z" fill="url(#paint0_linear_2165_395)"/>
<defs>
<linearGradient id="paint0_linear_2165_395" x1="344.791" y1="0.211426" x2="344.791" y2="430" gradientUnits="userSpaceOnUse">
<stop stop-color="#FF0000"/>
<stop offset="1" stop-color="#4F0000"/>
</linearGradient>
</defs>
</svg>
