<svg width="15" height="16" viewBox="0 0 15 16" fill="none" xmlns="http://www.w3.org/2000/svg">
<path d="M12.721 7.68884L12.4428 7.40612L12.3288 7.29668C12.4756 6.84689 12.5585 6.37871 12.5751 5.90586C12.5751 4.93834 12.1907 4.01044 11.5066 3.3263C10.8224 2.64216 9.89454 2.25781 8.92702 2.25781H7.24892C7.06004 2.2577 6.87392 2.30305 6.70627 2.39005C6.50213 2.34021 6.29498 2.30365 6.0861 2.28061C5.98122 2.28061 5.89914 2.28061 5.8353 2.28061H5.73498C4.76746 2.28061 3.83956 2.66496 3.15542 3.3491C2.47128 4.03324 2.08693 4.96114 2.08693 5.92866V6.88627L1.54429 7.41068C1.37012 7.58692 1.25185 7.81065 1.2043 8.05382C1.15675 8.29699 1.18204 8.54879 1.27699 8.77766C1.37195 9.00652 1.53234 9.20226 1.73807 9.34035C1.94381 9.47844 2.18572 9.55273 2.4335 9.55391C2.4866 9.55857 2.54 9.55857 2.5931 9.55391C2.64991 9.76504 2.75979 9.95813 2.9123 10.1148C3.12306 10.3196 3.39904 10.4439 3.69207 10.4659C3.71738 10.7599 3.84483 11.0358 4.05232 11.2457C4.2603 11.4552 4.53754 11.5816 4.83209 11.6014C4.85383 11.8954 4.97999 12.172 5.18777 12.3811C5.40665 12.6016 5.69982 12.7327 6.01008 12.7487C6.32035 12.7647 6.62545 12.6646 6.86587 12.4678L7.2398 12.8371C7.35634 12.9543 7.49489 13.0473 7.64749 13.1108C7.8001 13.1743 7.96374 13.2069 8.12901 13.2069C8.29428 13.2069 8.45793 13.1743 8.61053 13.1108C8.76313 13.0473 8.90169 12.9543 9.01822 12.8371C9.23208 12.6294 9.36195 12.3502 9.38303 12.0528C9.67757 12.0331 9.95481 11.9066 10.1628 11.6971C10.366 11.4871 10.4901 11.2132 10.5139 10.9219C10.8079 10.8966 11.0838 10.7692 11.2937 10.5617C11.4603 10.3955 11.5759 10.185 11.6266 9.95519C11.8249 9.98961 12.0287 9.9743 12.2197 9.91063C12.4107 9.84697 12.5829 9.73694 12.721 9.59039C12.8463 9.46579 12.9458 9.31765 13.0136 9.15448C13.0815 8.99131 13.1165 8.81634 13.1165 8.63962C13.1165 8.46289 13.0815 8.28792 13.0136 8.12475C12.9458 7.96158 12.8463 7.81344 12.721 7.68884ZM7.24892 3.16982H8.92702C9.65266 3.16982 10.3486 3.45808 10.8617 3.97119C11.3748 4.4843 11.6631 5.18022 11.6631 5.90586C11.655 6.12221 11.6276 6.3374 11.581 6.54883L9.70679 4.67008C9.66418 4.62782 9.61365 4.59438 9.55809 4.57169C9.50253 4.549 9.44304 4.53749 9.38303 4.53784H7.34012C7.2378 4.53714 7.13823 4.57087 7.0574 4.6336L6.14539 5.33129C6.02973 5.41007 5.88846 5.44197 5.75018 5.42052C5.6119 5.39907 5.48693 5.32587 5.40058 5.21576C5.31422 5.10564 5.27293 4.96683 5.28507 4.82742C5.2972 4.68801 5.36186 4.55842 5.46594 4.46488L7.03916 3.23367C7.09856 3.18677 7.17346 3.16397 7.24892 3.16982ZM2.18725 8.54613C2.12371 8.4799 2.08823 8.39167 2.08823 8.29989C2.08823 8.20811 2.12371 8.11988 2.18725 8.05365L2.8667 7.3742C2.89897 7.34188 2.93738 7.31636 2.97968 7.29913C3.02197 7.2819 3.06728 7.27331 3.11295 7.27388C3.15792 7.27341 3.20252 7.28205 3.24406 7.29929C3.2856 7.31654 3.32321 7.34202 3.35463 7.3742C3.38717 7.40642 3.413 7.44478 3.43062 7.48704C3.44825 7.52931 3.45733 7.57465 3.45733 7.62044C3.45733 7.66624 3.44825 7.71158 3.43062 7.75384C3.413 7.79611 3.38717 7.83446 3.35463 7.86668L2.67974 8.54613C2.61249 8.60766 2.52465 8.64178 2.4335 8.64178C2.34235 8.64178 2.2545 8.60766 2.18725 8.54613ZM3.45495 9.2119C3.4548 9.16656 3.46404 9.12168 3.48209 9.08008C3.50014 9.03848 3.52661 9.00108 3.55983 8.97022L4.23472 8.29077C4.26714 8.25866 4.30558 8.23327 4.34784 8.21605C4.3901 8.19884 4.43534 8.19014 4.48096 8.19045C4.54892 8.19087 4.61526 8.21126 4.67172 8.24908C4.72818 8.28691 4.77227 8.3405 4.79851 8.40318C4.82475 8.46587 4.83198 8.53489 4.81931 8.60166C4.80663 8.66843 4.7746 8.72999 4.72721 8.7787L4.04776 9.45815C3.98229 9.52139 3.89482 9.55674 3.8038 9.55674C3.71277 9.55674 3.6253 9.52139 3.55983 9.45815C3.52626 9.42659 3.49961 9.38842 3.48155 9.34603C3.4635 9.30364 3.45444 9.25797 3.45495 9.2119ZM4.69529 10.1239L5.37474 9.44447C5.407 9.41215 5.44542 9.38662 5.48771 9.36939C5.53 9.35216 5.57531 9.34358 5.62098 9.34414C5.66595 9.34367 5.71055 9.35232 5.75209 9.36956C5.79363 9.3868 5.83124 9.41228 5.86266 9.44447C5.8952 9.47669 5.92103 9.51504 5.93866 9.55731C5.95628 9.59957 5.96536 9.64491 5.96536 9.69071C5.96536 9.7365 5.95628 9.78184 5.93866 9.82411C5.92103 9.86637 5.8952 9.90473 5.86266 9.93695L5.18777 10.5982C5.12247 10.6635 5.03389 10.7002 4.94153 10.7002C4.84917 10.7002 4.76059 10.6635 4.69529 10.5982C4.62998 10.5329 4.59329 10.4443 4.59329 10.3519C4.59329 10.2596 4.62998 10.171 4.69529 10.1057V10.1239ZM5.8353 11.7519C5.80276 11.7196 5.77693 11.6813 5.75931 11.639C5.74168 11.5967 5.7326 11.5514 5.7326 11.5056C5.7326 11.4598 5.74168 11.4145 5.75931 11.3722C5.77693 11.3299 5.80276 11.2916 5.8353 11.2594L6.51019 10.5845C6.57548 10.5188 6.66383 10.4812 6.75643 10.4796C6.80238 10.4799 6.84781 10.4893 6.89009 10.5073C6.93236 10.5253 6.97063 10.5515 7.00268 10.5845C7.06592 10.6499 7.10127 10.7374 7.10127 10.8284C7.10127 10.9195 7.06592 11.0069 7.00268 11.0724L6.32323 11.7519C6.25542 11.8127 6.16662 11.8448 6.07557 11.8414C5.98453 11.838 5.89837 11.7994 5.8353 11.7336V11.7519ZM11.7634 9.07054C11.5926 9.02454 11.4359 8.93678 11.3074 8.81518V8.79238L10.3954 7.88036C10.3095 7.7945 10.193 7.74626 10.0716 7.74626C9.95016 7.74626 9.8337 7.7945 9.74783 7.88036C9.66196 7.96623 9.61372 8.08269 9.61372 8.20413C9.61372 8.32556 9.66196 8.44203 9.74783 8.52789L10.6598 9.43991C10.7148 9.50638 10.743 9.59096 10.7389 9.67711C10.7348 9.76326 10.6988 9.8448 10.6378 9.90579C10.5768 9.96677 10.4953 10.0028 10.4091 10.0069C10.323 10.011 10.2384 9.98279 10.1719 9.92783C10.1295 9.88509 10.0791 9.85117 10.0235 9.82801C9.96795 9.80486 9.90835 9.79295 9.84815 9.79295C9.78795 9.79295 9.72835 9.80486 9.67278 9.82801C9.61722 9.85117 9.56678 9.88509 9.52439 9.92783C9.43946 10.0133 9.39179 10.1288 9.39179 10.2493C9.39179 10.3698 9.43946 10.4854 9.52439 10.5708C9.55679 10.6026 9.58253 10.6406 9.60009 10.6825C9.61766 10.7244 9.62671 10.7693 9.62671 10.8148C9.62671 10.8602 9.61766 10.9052 9.60009 10.947C9.58253 10.9889 9.55679 11.0269 9.52439 11.0587C9.49216 11.0913 9.45381 11.1171 9.41155 11.1347C9.36928 11.1523 9.32394 11.1614 9.27815 11.1614C9.23235 11.1614 9.18701 11.1523 9.14474 11.1347C9.10248 11.1171 9.06413 11.0913 9.0319 11.0587C8.94646 10.9738 8.83089 10.9261 8.71042 10.9261C8.58995 10.9261 8.47437 10.9738 8.38893 11.0587C8.304 11.1442 8.25633 11.2597 8.25633 11.3802C8.25633 11.5007 8.304 11.6163 8.38893 11.7017C8.45424 11.7664 8.49117 11.8544 8.4916 11.9463C8.49203 12.0383 8.45592 12.1266 8.39121 12.1919C8.32651 12.2572 8.23851 12.2941 8.14658 12.2946C8.05465 12.295 7.96632 12.2589 7.90101 12.1942L7.5362 11.8294L7.66388 11.7063C7.78122 11.5893 7.87431 11.4504 7.93784 11.2974C8.00136 11.1444 8.03406 10.9804 8.03406 10.8148C8.03406 10.6491 8.00136 10.4851 7.93784 10.3321C7.87431 10.1791 7.78122 10.0402 7.66388 9.92327C7.45217 9.70647 7.16817 9.57502 6.86587 9.55391C6.84413 9.25987 6.71797 8.98331 6.51019 8.77414C6.30018 8.57095 6.02622 8.44686 5.73498 8.42301C5.70968 8.12899 5.58222 7.8531 5.37474 7.64324C5.23981 7.50423 5.0744 7.39849 4.89159 7.33439C4.70878 7.27028 4.51356 7.24957 4.32136 7.27388C4.24662 6.98872 4.07205 6.73985 3.82938 6.57249C3.58671 6.40513 3.29205 6.3304 2.99894 6.36187V5.90586C2.99866 5.19345 3.27625 4.50903 3.77271 3.99809C4.26917 3.48716 4.94534 3.19001 5.65746 3.16982L4.92785 3.73983C4.62877 3.98101 4.4365 4.33011 4.39254 4.7118C4.34857 5.09348 4.45644 5.47715 4.69286 5.78001C4.92928 6.08287 5.2753 6.28063 5.65624 6.33062C6.03719 6.38061 6.42252 6.27883 6.72907 6.04722L7.49516 5.44985H9.19606L10.9927 7.27388L12.0735 8.35005C12.1491 8.43384 12.1909 8.5427 12.1909 8.65558C12.1909 8.76845 12.1491 8.87731 12.0735 8.9611C12.034 9.00455 11.9833 9.03611 11.9269 9.05222C11.8705 9.06834 11.8107 9.06837 11.7543 9.0523L11.7634 9.07054Z" fill="#212121"/>
</svg>
