<svg width="1025" height="281" viewBox="0 0 1025 281" fill="none" xmlns="http://www.w3.org/2000/svg">
<path d="M169.933 155.435L182.532 172.178C186.068 166.652 188.776 160.629 190.655 154.109C192.533 147.477 193.473 140.46 193.473 133.055C193.473 111.725 187.45 94.208 175.403 80.5039C163.467 66.6892 148.326 59.7819 129.98 59.7819C111.966 59.7819 96.8805 66.6339 84.7236 80.3381C72.5666 94.0423 66.4882 111.062 66.4882 131.397C66.4882 152.174 72.5114 169.36 84.5578 182.954C96.6042 196.547 111.856 203.344 130.312 203.344C132.854 203.344 135.451 203.068 138.104 202.515C140.866 201.852 143.795 200.913 146.89 199.697L112.574 155.435H169.933ZM264.757 280.762H208.393L182.532 246.777C175.569 250.535 167.777 253.353 159.157 255.232C150.537 257.111 141.143 258.05 130.975 258.05C117.16 258.05 103.898 256.227 91.1888 252.58C78.5898 248.933 66.8197 243.517 55.8785 236.334C38.5273 224.729 24.8783 209.644 14.9318 191.077C5.09572 172.399 0.177692 152.396 0.177692 131.066C0.177692 113.825 3.43796 97.5236 9.95849 82.1616C16.479 66.7997 25.9283 53.0955 38.3062 41.0491C50.4631 29.1133 64.3883 19.9956 80.0818 13.6961C95.7753 7.28605 112.408 4.08104 129.98 4.08104C147.442 4.08104 164.02 7.28605 179.713 13.6961C195.407 19.9956 209.387 29.1133 221.655 41.0491C233.922 53.0955 243.316 66.7997 249.837 82.1616C256.357 97.5236 259.617 113.825 259.617 131.066C259.617 149.19 256.302 165.989 249.671 181.462C243.04 196.934 233.314 210.472 220.494 222.077L264.757 280.762ZM468.827 84.8141V170.355C468.827 189.253 467.28 203.289 464.185 212.462C461.201 221.524 456.118 229.592 448.934 236.665C441.529 244.07 432.301 249.596 421.249 253.243C410.198 256.89 397.212 258.713 382.292 258.713C367.483 258.713 354.552 256.89 343.5 253.243C332.559 249.596 323.22 244.07 315.484 236.665C308.3 229.813 303.217 221.8 300.233 212.628C297.249 203.344 295.757 189.253 295.757 170.355V84.8141H352.121V174.167C352.121 188.203 354.441 198.371 359.083 204.67C363.725 210.859 371.24 213.954 381.629 213.954C392.128 213.954 399.643 210.915 404.174 204.836C408.816 198.647 411.137 188.424 411.137 174.167V84.8141H468.827ZM509.94 32.5946C509.94 23.6426 513.089 16.0169 519.389 9.71743C525.799 3.41794 533.48 0.268188 542.432 0.268188C551.715 0.268188 559.451 3.36268 565.64 9.55166C571.94 15.7406 575.09 23.4216 575.09 32.5946C575.09 41.7675 571.885 49.559 565.475 55.969C559.175 62.379 551.494 65.584 542.432 65.584C533.59 65.584 525.965 62.3238 519.555 55.8032C513.145 49.2827 509.94 41.5465 509.94 32.5946ZM512.924 252.248V84.8141H572.106V252.248H512.924ZM765.401 252.248H595.646L681.518 127.916H606.09V84.8141H772.861L683.839 206.825H765.401V252.248ZM891.391 65.9156L891.722 66.5787C895.59 73.8728 898.187 80.2828 899.514 85.8087C900.729 80.7249 903.216 74.7017 906.974 67.7391C907.416 66.9655 907.747 66.3576 907.968 65.9156L937.145 9.55166H1015.56L934.492 126.258L1024.18 252.248H949.081L907.968 180.301C906.089 177.096 904.432 173.836 902.995 170.52C901.558 167.094 900.398 163.668 899.514 160.242C898.519 164.11 897.359 167.702 896.032 171.018C894.706 174.333 893.159 177.428 891.391 180.301L849.947 252.248H774.85L864.866 124.932L783.47 9.55166H862.214L891.391 65.9156Z" fill="#CF0804"/>
</svg>
